<mxfile host="65bd71144e">
    <diagram id="YHG_vctj_Lfh1qZn_GJj" name="Page-1">
        <mxGraphModel dx="1374" dy="790" grid="0" gridSize="10" guides="1" tooltips="1" connect="1" arrows="1" fold="1" page="1" pageScale="1" pageWidth="1169" pageHeight="827" background="#C2C2C2" math="0" shadow="1">
            <root>
                <mxCell id="0"/>
                <mxCell id="1" parent="0"/>
                <mxCell id="16" value="" style="edgeStyle=none;html=1;fontSize=28;fillColor=#76608a;strokeColor=#432D57;strokeWidth=2;" parent="1" source="4" target="15" edge="1">
                    <mxGeometry relative="1" as="geometry"/>
                </mxCell>
                <mxCell id="41" style="edgeStyle=none;html=1;exitX=1;exitY=0.25;exitDx=0;exitDy=0;entryX=0;entryY=0.25;entryDx=0;entryDy=0;fontFamily=Verdana;fontSize=15;fontColor=#000000;fillColor=#76608a;strokeColor=#432D57;strokeWidth=2;" parent="1" source="4" target="5" edge="1">
                    <mxGeometry relative="1" as="geometry"/>
                </mxCell>
                <mxCell id="4" value="&lt;h1 style=&quot;font-size: 28px&quot;&gt;&lt;font color=&quot;#000000&quot;&gt;FRONT&lt;/font&gt;&lt;/h1&gt;" style="whiteSpace=wrap;html=1;rounded=0;glass=0;sketch=0;shadow=0;fillColor=#76608a;fontColor=#ffffff;strokeColor=#432D57;fontStyle=6;fontFamily=Verdana;" parent="1" vertex="1">
                    <mxGeometry x="160" y="360" width="160" height="80" as="geometry"/>
                </mxCell>
                <mxCell id="14" value="" style="edgeStyle=none;html=1;fontSize=28;fillColor=#76608a;strokeColor=#432D57;strokeWidth=2;" parent="1" source="5" target="13" edge="1">
                    <mxGeometry relative="1" as="geometry"/>
                </mxCell>
                <mxCell id="42" style="edgeStyle=none;html=1;exitX=0;exitY=0.75;exitDx=0;exitDy=0;entryX=1;entryY=0.75;entryDx=0;entryDy=0;fontFamily=Verdana;fontSize=15;fontColor=#000000;strokeWidth=2;fillColor=#76608a;strokeColor=#432D57;" parent="1" source="5" target="4" edge="1">
                    <mxGeometry relative="1" as="geometry"/>
                </mxCell>
                <mxCell id="43" style="edgeStyle=none;html=1;exitX=1;exitY=0.25;exitDx=0;exitDy=0;entryX=0;entryY=0.25;entryDx=0;entryDy=0;fontFamily=Verdana;fontSize=15;fontColor=#000000;fillColor=#76608a;strokeColor=#432D57;strokeWidth=2;" parent="1" source="5" target="6" edge="1">
                    <mxGeometry relative="1" as="geometry"/>
                </mxCell>
                <mxCell id="5" value="&lt;h1 style=&quot;font-size: 28px&quot;&gt;&lt;font color=&quot;#000000&quot;&gt;BACK&lt;/font&gt;&lt;/h1&gt;" style="whiteSpace=wrap;html=1;fillColor=#76608a;fontColor=#ffffff;strokeColor=#432D57;fontStyle=6;fontFamily=Verdana;" parent="1" vertex="1">
                    <mxGeometry x="520" y="360" width="160" height="80" as="geometry"/>
                </mxCell>
                <mxCell id="12" value="" style="edgeStyle=none;html=1;fontSize=28;fillColor=#76608a;strokeColor=#432D57;strokeWidth=2;entryX=0.5;entryY=0;entryDx=0;entryDy=0;" parent="1" source="6" target="36" edge="1">
                    <mxGeometry relative="1" as="geometry">
                        <mxPoint x="920" y="530" as="targetPoint"/>
                    </mxGeometry>
                </mxCell>
                <mxCell id="44" style="edgeStyle=none;html=1;exitX=0;exitY=0.75;exitDx=0;exitDy=0;entryX=1;entryY=0.75;entryDx=0;entryDy=0;fontFamily=Verdana;fontSize=15;fontColor=#000000;fillColor=#76608a;strokeColor=#432D57;strokeWidth=2;" parent="1" source="6" target="5" edge="1">
                    <mxGeometry relative="1" as="geometry"/>
                </mxCell>
                <mxCell id="6" value="&lt;h1 style=&quot;font-size: 28px&quot;&gt;&lt;font color=&quot;#000000&quot;&gt;DataBase&lt;/font&gt;&lt;/h1&gt;" style="whiteSpace=wrap;html=1;fillColor=#76608a;fontColor=#ffffff;strokeColor=#432D57;fontStyle=6;horizontal=1;verticalAlign=middle;fontFamily=Verdana;" parent="1" vertex="1">
                    <mxGeometry x="840" y="360" width="160" height="80" as="geometry"/>
                </mxCell>
                <mxCell id="19" style="edgeStyle=none;html=1;entryX=1;entryY=0.5;entryDx=0;entryDy=0;fontSize=21;fillColor=#e3c800;strokeColor=#B09500;strokeWidth=2;" parent="1" source="13" edge="1">
                    <mxGeometry relative="1" as="geometry">
                        <Array as="points">
                            <mxPoint x="600" y="720"/>
                        </Array>
                        <mxPoint x="560" y="720" as="targetPoint"/>
                    </mxGeometry>
                </mxCell>
                <mxCell id="13" value="&lt;h1&gt;&lt;font style=&quot;font-size: 21px&quot;&gt;NestJS&lt;/font&gt;&lt;/h1&gt;" style="ellipse;whiteSpace=wrap;html=1;fillColor=#e3c800;fontColor=#000000;strokeColor=#B09500;" parent="1" vertex="1">
                    <mxGeometry x="540" y="530" width="120" height="60" as="geometry"/>
                </mxCell>
                <mxCell id="18" value="" style="edgeStyle=none;html=1;fontSize=21;fillColor=#e3c800;strokeColor=#B09500;strokeWidth=2;" parent="1" source="15" edge="1">
                    <mxGeometry relative="1" as="geometry">
                        <Array as="points">
                            <mxPoint x="240" y="720"/>
                        </Array>
                        <mxPoint x="280" y="720" as="targetPoint"/>
                    </mxGeometry>
                </mxCell>
                <mxCell id="15" value="&lt;h1&gt;&lt;span style=&quot;font-size: 21px&quot;&gt;VueJS&lt;/span&gt;&lt;/h1&gt;" style="ellipse;whiteSpace=wrap;html=1;fillColor=#e3c800;fontColor=#000000;strokeColor=#B09500;" parent="1" vertex="1">
                    <mxGeometry x="180" y="530" width="120" height="60" as="geometry"/>
                </mxCell>
                <mxCell id="38" style="edgeStyle=none;html=1;exitX=0;exitY=0.5;exitDx=0;exitDy=0;fontFamily=Helvetica;fontSize=15;entryX=0;entryY=0.5;entryDx=0;entryDy=0;" parent="1" edge="1">
                    <mxGeometry relative="1" as="geometry">
                        <mxPoint x="280" y="720" as="targetPoint"/>
                        <mxPoint x="280" y="720" as="sourcePoint"/>
                    </mxGeometry>
                </mxCell>
                <mxCell id="27" value="" style="edgeStyle=none;html=1;fontFamily=Helvetica;fontSize=15;fillColor=#fa6800;strokeColor=#C73500;strokeWidth=2;" parent="1" source="20" target="26" edge="1">
                    <mxGeometry relative="1" as="geometry"/>
                </mxCell>
                <mxCell id="20" value="&lt;h1&gt;&lt;font face=&quot;Helvetica&quot;&gt;MAKEFILE&lt;/font&gt;&lt;/h1&gt;" style="whiteSpace=wrap;html=1;fontFamily=Comic Sans MS;fontSize=15;fillColor=#fa6800;fontColor=#000000;strokeColor=#C73500;" parent="1" vertex="1">
                    <mxGeometry x="520" y="20" width="160" height="60" as="geometry"/>
                </mxCell>
                <mxCell id="35" style="edgeStyle=none;html=1;exitX=0.5;exitY=1;exitDx=0;exitDy=0;entryX=0.5;entryY=0;entryDx=0;entryDy=0;fontFamily=Helvetica;fontSize=15;fillColor=#1ba1e2;strokeColor=#006EAF;strokeWidth=2;" parent="1" source="23" target="4" edge="1">
                    <mxGeometry relative="1" as="geometry"/>
                </mxCell>
                <mxCell id="23" value="DOCKERFILE" style="ellipse;whiteSpace=wrap;html=1;fontFamily=Helvetica;fontSize=15;fillColor=#1ba1e2;strokeColor=#006EAF;fontColor=#ffffff;" parent="1" vertex="1">
                    <mxGeometry x="190" y="220" width="100" height="100" as="geometry"/>
                </mxCell>
                <mxCell id="30" style="edgeStyle=none;html=1;exitX=0.5;exitY=1;exitDx=0;exitDy=0;entryX=0.5;entryY=0;entryDx=0;entryDy=0;fontFamily=Helvetica;fontSize=15;fillColor=#e51400;strokeColor=#B20000;" parent="1" source="26" target="28" edge="1">
                    <mxGeometry relative="1" as="geometry"/>
                </mxCell>
                <mxCell id="31" style="edgeStyle=none;html=1;exitX=0;exitY=0.5;exitDx=0;exitDy=0;entryX=0.5;entryY=0;entryDx=0;entryDy=0;fontFamily=Helvetica;fontSize=15;fillColor=#e51400;strokeColor=#B20000;strokeWidth=2;" parent="1" source="26" target="23" edge="1">
                    <mxGeometry relative="1" as="geometry">
                        <Array as="points">
                            <mxPoint x="240" y="150"/>
                        </Array>
                    </mxGeometry>
                </mxCell>
                <mxCell id="32" style="edgeStyle=none;html=1;exitX=1;exitY=0.5;exitDx=0;exitDy=0;entryX=0.5;entryY=0;entryDx=0;entryDy=0;fontFamily=Helvetica;fontSize=15;fillColor=#e51400;strokeColor=#B20000;strokeWidth=2;" parent="1" source="26" target="6" edge="1">
                    <mxGeometry relative="1" as="geometry">
                        <Array as="points">
                            <mxPoint x="920" y="150"/>
                        </Array>
                        <mxPoint x="920" y="220" as="targetPoint"/>
                    </mxGeometry>
                </mxCell>
                <mxCell id="26" value="DockerCompose" style="ellipse;whiteSpace=wrap;html=1;fontSize=15;fontFamily=Comic Sans MS;fillColor=#e51400;strokeColor=#B20000;fontColor=#ffffff;" parent="1" vertex="1">
                    <mxGeometry x="520" y="120" width="160" height="60" as="geometry"/>
                </mxCell>
                <mxCell id="34" style="edgeStyle=none;html=1;exitX=0.5;exitY=1;exitDx=0;exitDy=0;entryX=0.5;entryY=0;entryDx=0;entryDy=0;fontFamily=Helvetica;fontSize=15;fillColor=#1ba1e2;strokeColor=#006EAF;strokeWidth=2;" parent="1" source="28" target="5" edge="1">
                    <mxGeometry relative="1" as="geometry"/>
                </mxCell>
                <mxCell id="28" value="DOCKERFILE" style="ellipse;whiteSpace=wrap;html=1;fontFamily=Helvetica;fontSize=15;fillColor=#1ba1e2;strokeColor=#006EAF;fontColor=#ffffff;" parent="1" vertex="1">
                    <mxGeometry x="550" y="220" width="100" height="100" as="geometry"/>
                </mxCell>
                <mxCell id="36" value="&lt;h2&gt;PostgreSQL&lt;/h2&gt;" style="rounded=1;whiteSpace=wrap;html=1;align=center;" parent="1" vertex="1">
                    <mxGeometry x="800" y="640" width="240" height="160" as="geometry"/>
                </mxCell>
                <mxCell id="45" value="&lt;h2&gt;&lt;font color=&quot;#ffffff&quot; face=&quot;Verdana&quot;&gt;GAME&lt;br&gt;&lt;/font&gt;&lt;font color=&quot;#ffffff&quot; face=&quot;Verdana&quot;&gt;CHAT&lt;br&gt;&lt;/font&gt;&lt;font color=&quot;#ffffff&quot; face=&quot;Verdana&quot;&gt;USER ACC&lt;/font&gt;&lt;/h2&gt;" style="rounded=1;whiteSpace=wrap;html=1;fillColor=#333333;strokeColor=#B09500;fontColor=#000000;" vertex="1" parent="1">
                    <mxGeometry x="280" y="665" width="279" height="109" as="geometry"/>
                </mxCell>
            </root>
        </mxGraphModel>
    </diagram>
</mxfile>
